<?xml version="1.0" encoding="utf-8"?>
<!-- Generator: Adobe Illustrator 21.0.2, SVG Export Plug-In . SVG Version: 6.00 Build 0)  -->
<svg version="1.1" id="圖層_1" xmlns="http://www.w3.org/2000/svg" xmlns:xlink="http://www.w3.org/1999/xlink" x="0px" y="0px"
	 viewBox="0 0 16 16" style="enable-background:new 0 0 16 16;" xml:space="preserve">
<path d="M7.9,8.3C7.9,8.1,7.8,7.8,7.7,7.5h0C7.7,7.8,7.6,8.1,7.5,8.3L7.3,9.2h0.9L7.9,8.3L7.9,8.3z"/>
<path d="M13.8,5.9h-0.4V4.1c0,0,0,0,0,0c0,0,0,0,0,0c0-0.1,0-0.1-0.1-0.2l-2.9-3.3c0,0,0,0,0,0c0,0-0.1-0.1-0.1-0.1c0,0,0,0-0.1,0
	c0.1,0,0,0,0,0c0,0,0,0-0.1,0H3.1c-0.3,0-0.6,0.3-0.6,0.6v4.8H2.2l0,0c-0.5,0-0.8,0.4-0.8,0.8l0,0v4.4c0,0.5,0.4,0.8,0.8,0.8h0.4v3
	c0,0.3,0.3,0.6,0.6,0.6h9.7c0.3,0,0.6-0.3,0.6-0.6v-3h0.4c0.5,0,0.8-0.4,0.8-0.8V6.7C14.6,6.2,14.3,5.9,13.8,5.9L13.8,5.9z M3.1,1.1
	H10v3c0,0.2,0.1,0.3,0.3,0.3l0,0h2.6v1.5H3.1L3.1,1.1L3.1,1.1z M9.7,11h-1L8.3,10H7.1L6.8,11h-1l1.3-4.2h1.3L9.7,11L9.7,11z M2.2,9
	c0-1.4,1-2.2,2.3-2.2c0.5,0,0.9,0.1,1,0.2L5.3,7.7C5.1,7.6,4.9,7.5,4.5,7.5C3.8,7.5,3.2,8,3.2,8.9c0,0.8,0.5,1.4,1.4,1.4
	c0.3,0,0.6-0.1,0.8-0.1l0.1,0.7c-0.2,0.1-0.6,0.2-1.1,0.2C2.9,11.1,2.2,10.2,2.2,9L2.2,9z M12.9,14.8H3.1v-2.8h9.7
	C12.9,11.9,12.9,14.8,12.9,14.8z M13.3,10.5c-0.4,0.4-1.1,0.5-2,0.5c-0.5,0-0.8,0-1.1-0.1V6.9c0.4-0.1,0.8-0.1,1.3-0.1
	c0.8,0,1.3,0.1,1.7,0.5C13.7,7.6,14,8.1,14,8.8C14,9.6,13.7,10.2,13.3,10.5L13.3,10.5z"/>
<path d="M11.7,7.5c-0.2,0-0.4,0-0.4,0v2.8c0.1,0,0.2,0,0.3,0c0.9,0,1.4-0.5,1.4-1.5C13,8,12.5,7.5,11.7,7.5L11.7,7.5z"/>
</svg>
