<?xml version="1.0" encoding="utf-8"?>
<!-- Generator: Adobe Illustrator 21.0.2, SVG Export Plug-In . SVG Version: 6.00 Build 0)  -->
<svg version="1.1" id="圖層_1" xmlns="http://www.w3.org/2000/svg" xmlns:xlink="http://www.w3.org/1999/xlink" x="0px" y="0px"
	 viewBox="0 0 16 16" style="enable-background:new 0 0 16 16;" xml:space="preserve">
<path d="M13,0.5H3c-0.3,0-0.6,0.3-0.6,0.6v13.8c0,0.3,0.3,0.6,0.6,0.6h10c0.3,0,0.6-0.3,0.6-0.6l0-13.8C13.6,0.8,13.3,0.5,13,0.5z
	 M4.9,9.2H3.6V8h1.2V9.2z M4.9,11.8H3.6v-1.2h1.2V11.8z M4.9,14.2H3.6V13h1.2V14.2z M7.4,9.2H6.1V8h1.2V9.2z M7.4,11.8H6.1v-1.2h1.2
	V11.8z M7.4,14.2H6.1V13h1.2V14.2z M9.9,9.2H8.6V8h1.2V9.2z M9.9,11.8H8.6v-1.2h1.2V11.8z M9.9,14.2H8.6V13h1.2V14.2z M12.4,9.2
	h-1.2V8h1.2V9.2z M12.4,11.8h-1.2v-1.2h1.2V11.8z M12.4,14.2h-1.2V13h1.2V14.2z M12.4,5.5H3.6V1.8h8.7L12.4,5.5z M10.2,2.7h1.2v1.9
	h-1.2C10.2,4.6,10.2,2.7,10.2,2.7z"/>
</svg>
