<?xml version="1.0" encoding="utf-8"?>
<!-- Generator: Adobe Illustrator 21.0.2, SVG Export Plug-In . SVG Version: 6.00 Build 0)  -->
<svg version="1.1" id="圖層_1" xmlns="http://www.w3.org/2000/svg" xmlns:xlink="http://www.w3.org/1999/xlink" x="0px" y="0px"
	 viewBox="0 0 16 16" style="enable-background:new 0 0 16 16;" xml:space="preserve">
<path d="M14.1,13.2H1.9c-0.8,0-1.4-0.6-1.4-1.4V4.2c0-0.8,0.6-1.4,1.4-1.4h12.2c0.8,0,1.4,0.6,1.4,1.4v7.5
	C15.5,12.5,14.9,13.2,14.1,13.2z M14.5,11.7V4.3L10.2,8L14.5,11.7z M8,8.9l6-5.2H2L8,8.9z M14,12.2L9.6,8.5L8,9.9L6.4,8.5L2,12.2H14
	z M5.8,8L1.5,4.3v7.4L5.8,8z"/>
</svg>
