<?xml version="1.0" encoding="utf-8"?>
<!-- Generator: Adobe Illustrator 21.0.2, SVG Export Plug-In . SVG Version: 6.00 Build 0)  -->
<svg version="1.1" id="圖層_1" xmlns="http://www.w3.org/2000/svg" xmlns:xlink="http://www.w3.org/1999/xlink" x="0px" y="0px"
	 viewBox="0 0 16 16" style="enable-background:new 0 0 16 16;" xml:space="preserve">
<path d="M5.2,0.5c-0.7,0-1.3,0.6-1.3,1.3v12.4c0,0.7,0.6,1.3,1.3,1.3h5.6c0.7,0,1.3-0.6,1.3-1.3V1.8c0-0.7-0.6-1.3-1.3-1.3L5.2,0.5
	L5.2,0.5z M11.3,12.9H4.7V3.1h6.6L11.3,12.9L11.3,12.9z M7.3,14.1c0-0.4,0.3-0.7,0.7-0.7c0.4,0,0.7,0.3,0.7,0.7
	c0,0.4-0.3,0.7-0.7,0.7C7.6,14.8,7.3,14.5,7.3,14.1L7.3,14.1z M8.6,1.8c0.1,0,0.2,0.1,0.2,0.2c0,0.1-0.1,0.2-0.2,0.2H7.4
	C7.3,2.1,7.2,2.1,7.2,2c0-0.1,0.1-0.2,0.2-0.2H8.6L8.6,1.8z"/>
</svg>
