<?xml version="1.0" encoding="utf-8"?>
<!-- Generator: Adobe Illustrator 21.0.2, SVG Export Plug-In . SVG Version: 6.00 Build 0)  -->
<svg version="1.1" id="圖層_1" xmlns="http://www.w3.org/2000/svg" xmlns:xlink="http://www.w3.org/1999/xlink" x="0px" y="0px"
	 viewBox="0 0 16 16" style="enable-background:new 0 0 16 16;" xml:space="preserve">
<path d="M11.3,7.1H4.7c-0.3,0-0.5,0.2-0.5,0.5C4.2,7.8,4.4,8,4.7,8h6.6c0.3,0,0.5-0.2,0.5-0.5C11.8,7.3,11.6,7.1,11.3,7.1L11.3,7.1z
	 M13.7,13.6c0,0.5-0.4,0.9-0.9,0.9H3.3c-0.5,0-0.9-0.4-0.9-0.9V4.2c0-0.5,0.4-0.9,0.9-0.9h1.4v1.9h6.6V3.3h1.4
	c0.5,0,0.9,0.4,0.9,0.9V13.6L13.7,13.6z M5.6,2.4h1.1c0-0.5,0.6-0.9,1.3-0.9s1.3,0.4,1.3,0.9h1.1v1.9H5.6V2.4L5.6,2.4z M12.7,2.4
	h-1.4V1.4H10C9.6,0.9,8.9,0.5,8,0.5S6.4,0.9,6,1.4H4.7v0.9H3.3c-1,0-1.9,0.8-1.9,1.9v9.4c0,1,0.8,1.9,1.9,1.9h9.5
	c1,0,1.9-0.8,1.9-1.9V4.2C14.6,3.2,13.8,2.4,12.7,2.4L12.7,2.4z M11.3,11.8H4.7c-0.3,0-0.5,0.2-0.5,0.5c0,0.3,0.2,0.5,0.5,0.5h6.6
	c0.3,0,0.5-0.2,0.5-0.5C11.8,12,11.6,11.8,11.3,11.8L11.3,11.8z M11.3,9.4H4.7c-0.3,0-0.5,0.2-0.5,0.5c0,0.3,0.2,0.5,0.5,0.5h6.6
	c0.3,0,0.5-0.2,0.5-0.5C11.8,9.6,11.6,9.4,11.3,9.4L11.3,9.4z"/>
</svg>
