<?xml version="1.0" encoding="utf-8"?>
<!-- Generator: Adobe Illustrator 21.0.2, SVG Export Plug-In . SVG Version: 6.00 Build 0)  -->
<svg version="1.1" id="圖層_1" xmlns="http://www.w3.org/2000/svg" xmlns:xlink="http://www.w3.org/1999/xlink" x="0px" y="0px"
	 viewBox="0 0 16 16" style="enable-background:new 0 0 16 16;" xml:space="preserve">
<path d="M12.3,15.5c-0.1,0-0.1,0-0.2,0c-0.5,0-1.1,0-1.6,0c0,0-0.1,0-0.1,0c0-0.1,0-0.2,0-0.4c0,0,0,0,0.1,0c0.6,0,1.1,0,1.7,0
	c0,0,0.1,0,0.1,0C12.3,15.2,12.3,15.4,12.3,15.5z M12.3,0.9C12.3,0.9,12.3,0.9,12.3,0.9c-0.7,0-1.2,0-1.8,0c0,0,0,0-0.1,0
	c0-0.1,0-0.2,0-0.4c0,0,0,0,0,0c0.6,0,1.2,0,1.8,0C12.3,0.6,12.3,0.7,12.3,0.9z M9.7,15.5c-2,0-4,0-6,0c0-5,0-10,0-15c2,0,4,0,6,0
	C9.7,5.5,9.7,10.5,9.7,15.5z M8.9,4.3c0-0.6,0-1.3,0-1.9c-0.7,0-1.5,0-2.2,0c0-0.1,0-0.2,0-0.4c0.7,0,1.5,0,2.2,0c0-0.2,0-0.5,0-0.7
	c-1.5,0-3,0-4.4,0c0,4.5,0,9,0,13.4c1.5,0,3,0,4.4,0c0-0.7,0-1.5,0-2.2c-0.4,0-0.7,0-1.1,0c0-0.1,0-0.3,0-0.4c0.4,0,0.7,0,1.1,0
	c0-0.8,0-1.5,0-2.2c-0.7,0-1.5,0-2.2,0c0-0.1,0-0.2,0-0.4c0.7,0,1.5,0,2.2,0c0-0.8,0-1.5,0-2.3c-0.4,0-0.7,0-1.1,0
	c0-0.1,0-0.2,0-0.4c0.4,0,0.7,0,1.1,0c0-0.8,0-1.5,0-2.2c-0.4,0-0.7,0-1.1,0c0-0.1,0-0.2,0-0.4C8.2,4.3,8.5,4.3,8.9,4.3z M11.2,1.3
	c0.1,0,0.2,0,0.4,0c0,4.5,0,9,0,13.5c-0.1,0-0.2,0-0.4,0C11.2,10.2,11.2,5.8,11.2,1.3z"/>
</svg>
