<?xml version="1.0" encoding="utf-8"?>
<!-- Generator: Adobe Illustrator 21.0.2, SVG Export Plug-In . SVG Version: 6.00 Build 0)  -->
<svg version="1.1" id="圖層_1" xmlns="http://www.w3.org/2000/svg" xmlns:xlink="http://www.w3.org/1999/xlink" x="0px" y="0px"
	 viewBox="0 0 16 16" style="enable-background:new 0 0 16 16;" xml:space="preserve">
<path d="M15.4,6.8l-0.1-0.4L14.1,6c-0.1-0.3-0.2-0.6-0.4-0.9l0.6-1.1l-0.2-0.3c-0.5-0.6-1-1.2-1.7-1.7l-0.3-0.2l-1.1,0.6
	C10.6,2.1,10.3,2,10,1.9L9.6,0.7L9.2,0.6C8.8,0.5,8.4,0.5,8,0.5c-0.4,0-0.8,0-1.2,0.1L6.4,0.7L6,1.9C5.7,2,5.4,2.1,5.1,2.3L3.9,1.7
	L3.6,1.9C3,2.4,2.4,3,1.9,3.6L1.7,3.9l0.6,1.1C2.1,5.4,2,5.7,1.9,6L0.7,6.4L0.6,6.8C0.5,7.2,0.5,7.6,0.5,8c0,0.4,0,0.8,0.1,1.2
	l0.1,0.4L1.9,10c0.1,0.3,0.2,0.6,0.4,0.9l-0.6,1.1l0.2,0.3c0.2,0.3,0.5,0.6,0.8,0.9c0.3,0.3,0.6,0.5,0.9,0.8l0.3,0.2l1.1-0.6
	C5.4,13.9,5.7,14,6,14.1l0.4,1.2l0.4,0.1c0.4,0.1,0.8,0.1,1.2,0.1c0.4,0,0.8,0,1.2-0.1l0.4-0.1l0.4-1.2c0.3-0.1,0.6-0.2,0.9-0.4
	l1.1,0.6l0.3-0.2c0.4-0.3,0.7-0.5,0.9-0.8c0.3-0.3,0.5-0.6,0.8-0.9l0.2-0.3l-0.6-1.1c0.2-0.3,0.3-0.6,0.4-0.9l1.2-0.4l0.1-0.4
	c0.1-0.4,0.1-0.8,0.1-1.2C15.5,7.6,15.5,7.2,15.4,6.8z M14.3,8L14.3,8c0,0.2,0,0.5,0,0.7l-0.6,0.2l-0.5,0.2L13,9.6
	c-0.1,0.3-0.2,0.6-0.4,0.9l-0.3,0.5l0.5,1c-0.1,0.2-0.3,0.4-0.5,0.5l0,0c-0.2,0.2-0.3,0.3-0.5,0.5l-1-0.5l-0.5,0.2
	c-0.3,0.1-0.6,0.3-0.9,0.4l-0.5,0.2l-0.2,0.5l-0.2,0.6c-0.5,0.1-0.9,0.1-1.4,0l-0.2-0.6L7,13.2L6.4,13c-0.3-0.1-0.6-0.2-0.9-0.4
	l-0.5-0.2l-0.5,0.2l-0.5,0.3c-0.4-0.3-0.7-0.6-1-1l0.5-1l-0.2-0.5C3.2,10.2,3.1,9.9,3,9.6L2.8,9.1L1.7,8.7c-0.1-0.5-0.1-0.9,0-1.4
	l1.1-0.4L3,6.4c0.1-0.3,0.2-0.6,0.4-0.9l0.2-0.5L3.4,4.6L3.1,4.1c0.3-0.4,0.6-0.7,1-1l1,0.5l0.5-0.3C5.8,3.2,6.1,3.1,6.4,3L7,2.8
	l0.2-0.5l0.2-0.6c0.2,0,0.5,0,0.7,0c0.2,0,0.4,0,0.7,0l0.4,1.1L9.6,3c0.3,0.1,0.6,0.2,0.9,0.4l0.5,0.2l1-0.5c0.4,0.3,0.7,0.6,1,1
	l-0.5,1l0.2,0.5c0.1,0.3,0.3,0.6,0.4,0.9l0.2,0.5l0.5,0.2l0.6,0.2C14.3,7.6,14.3,7.8,14.3,8L14.3,8z M8,5.1C6.4,5.1,5.1,6.4,5.1,8
	c0,1.6,1.3,2.9,2.9,2.9c1.6,0,2.9-1.3,2.9-2.9C10.9,6.4,9.6,5.1,8,5.1L8,5.1z M9.2,9.2C8.9,9.5,8.5,9.7,8,9.7
	c-0.4,0-0.9-0.2-1.2-0.5C6.5,8.9,6.3,8.4,6.3,8c0-0.4,0.2-0.9,0.5-1.2C7.1,6.5,7.6,6.3,8,6.3c0.4,0,0.9,0.2,1.2,0.5
	C9.8,7.5,9.9,8.5,9.2,9.2C9.2,9.2,9.2,9.2,9.2,9.2z"/>
</svg>
