<svg style="position: absolute; width: 0; height: 0; overflow: hidden;" version="1.1" xmlns="http://www.w3.org/2000/svg" xmlns:xlink="http://www.w3.org/1999/xlink">
<defs>
<symbol id="icon_cad" viewBox="0 0 16 16">
<title>cad</title>
<path d="M7.85 8.3c0-0.2-0.1-0.5-0.2-0.8v0c0 0.3-0.1 0.6-0.2 0.8l-0.2 0.9h0.9l-0.3-0.9z"></path>
<path d="M13.75 5.9h-0.4v-1.8c0 0 0 0 0 0s0 0 0 0c0-0.1 0-0.1-0.1-0.2l-2.9-3.3c0 0 0 0 0 0s-0.1-0.1-0.1-0.1c0 0 0 0-0.1 0 0.1 0 0 0 0 0s0 0-0.1 0h-7c-0.3 0-0.6 0.3-0.6 0.6v4.8h-0.3c-0.5 0-0.8 0.4-0.8 0.8v0 4.4c0 0.5 0.4 0.8 0.8 0.8h0.4v3c0 0.3 0.3 0.6 0.6 0.6h9.7c0.3 0 0.6-0.3 0.6-0.6v-3h0.4c0.5 0 0.8-0.4 0.8-0.8v-4.4c-0.1-0.5-0.4-0.8-0.9-0.8v0zM3.050 1.1h6.9v3c0 0.2 0.1 0.3 0.3 0.3v0h2.6v1.5h-9.8v-4.8zM9.65 11h-1l-0.4-1h-1.2l-0.3 1h-1l1.3-4.2h1.3l1.3 4.2zM2.15 9c0-1.4 1-2.2 2.3-2.2 0.5 0 0.9 0.1 1 0.2l-0.2 0.7c-0.2-0.1-0.4-0.2-0.8-0.2-0.7 0-1.3 0.5-1.3 1.4 0 0.8 0.5 1.4 1.4 1.4 0.3 0 0.6-0.1 0.8-0.1l0.1 0.7c-0.2 0.1-0.6 0.2-1.1 0.2-1.5 0-2.2-0.9-2.2-2.1v0zM12.85 14.8h-9.8v-2.8h9.7c0.1-0.1 0.1 2.8 0.1 2.8zM13.25 10.5c-0.4 0.4-1.1 0.5-2 0.5-0.5 0-0.8 0-1.1-0.1v-4c0.4-0.1 0.8-0.1 1.3-0.1 0.8 0 1.3 0.1 1.7 0.5 0.5 0.3 0.8 0.8 0.8 1.5 0 0.8-0.3 1.4-0.7 1.7v0z"></path>
<path d="M11.65 7.5c-0.2 0-0.4 0-0.4 0v2.8c0.1 0 0.2 0 0.3 0 0.9 0 1.4-0.5 1.4-1.5 0-0.8-0.5-1.3-1.3-1.3v0z"></path>
</symbol>
<symbol id="icon_calculator" viewBox="0 0 16 16">
<title>calculator</title>
<path d="M13 0.5h-10c-0.3 0-0.6 0.3-0.6 0.6v13.8c0 0.3 0.3 0.6 0.6 0.6h10c0.3 0 0.6-0.3 0.6-0.6v-13.8c0-0.3-0.3-0.6-0.6-0.6zM4.9 9.2h-1.3v-1.2h1.2v1.2zM4.9 11.8h-1.3v-1.2h1.2v1.2zM4.9 14.2h-1.3v-1.2h1.2v1.2zM7.4 9.2h-1.3v-1.2h1.2v1.2zM7.4 11.8h-1.3v-1.2h1.2v1.2zM7.4 14.2h-1.3v-1.2h1.2v1.2zM9.9 9.2h-1.3v-1.2h1.2v1.2zM9.9 11.8h-1.3v-1.2h1.2v1.2zM9.9 14.2h-1.3v-1.2h1.2v1.2zM12.4 9.2h-1.2v-1.2h1.2v1.2zM12.4 11.8h-1.2v-1.2h1.2v1.2zM12.4 14.2h-1.2v-1.2h1.2v1.2zM12.4 5.5h-8.8v-3.7h8.7l0.1 3.7zM10.2 2.7h1.2v1.9h-1.2c0 0 0-1.9 0-1.9z"></path>
</symbol>
<symbol id="icon_email" viewBox="0 0 16 16">
<title>email</title>
<path d="M14.1 13.2h-12.2c-0.8 0-1.4-0.6-1.4-1.4v-7.6c0-0.8 0.6-1.4 1.4-1.4h12.2c0.8 0 1.4 0.6 1.4 1.4v7.5c0 0.8-0.6 1.5-1.4 1.5zM14.5 11.7v-7.4l-4.3 3.7 4.3 3.7zM8 8.9l6-5.2h-12l6 5.2zM14 12.2l-4.4-3.7-1.6 1.4-1.6-1.4-4.4 3.7h12zM5.8 8l-4.3-3.7v7.4l4.3-3.7z"></path>
</symbol>
<symbol id="icon_hammer" viewBox="0 0 16 16">
<title>hammer</title>
<path d="M6.437 7.547c-0.201-0.101-0.403 0-0.503 0.201l-0.201 0.201c-0.101 0.201 0 0.403 0.101 0.503s0.403 0 0.503-0.101l0.101-0.201c0.201-0.201 0.101-0.503 0-0.604v0zM7.745 14.189h-6.541c-0.302 0-0.503 0.201-0.503 0.503s0.201 0.503 0.503 0.503h6.541c0.302 0 0.503-0.201 0.503-0.503s-0.201-0.503-0.503-0.503v0zM15.292 10.264l-6.038-3.22 1.409-2.415c0.302-0.503 0.101-1.107-0.403-1.409l-3.925-2.214c-0.503-0.201-1.107-0.101-1.409 0.403l-4.327 7.447c-0.201 0.503-0.101 1.107 0.403 1.308l3.925 2.314c0.503 0.302 1.107 0.101 1.409-0.403l1.409-2.415 5.937 3.623c0.201 0.101 0.503 0.101 0.704-0.201l1.308-2.214c0-0.101-0.101-0.503-0.403-0.604v0zM5.732 11.17c-0.101 0.201-0.403 0.302-0.704 0.201l-3.019-1.811c-0.302-0.101-0.403-0.403-0.201-0.704l3.824-6.541c0-0.201 0.403-0.302 0.604-0.101l3.019 1.811c0.302 0 0.302 0.403 0.201 0.604l-3.723 6.541zM13.682 12.176l-5.434-3.321 0.503-0.906 5.736 2.918-0.805 1.308zM8.148 4.528c-0.201-0.101-0.403 0-0.503 0.101l-1.107 2.013c-0.101 0.201-0.101 0.403 0.101 0.503s0.403 0 0.503-0.101l1.107-2.013c0.201-0.201 0.101-0.403-0.101-0.503v0z"></path>
</symbol>
<symbol id="icon_iphone" viewBox="0 0 16 16">
<title>iphone</title>
<path d="M5.2 0.5c-0.7 0-1.3 0.6-1.3 1.3v12.4c0 0.7 0.6 1.3 1.3 1.3h5.6c0.7 0 1.3-0.6 1.3-1.3v-12.4c0-0.7-0.6-1.3-1.3-1.3h-5.6zM11.3 12.9h-6.6v-9.8h6.6v9.8zM7.3 14.1c0-0.4 0.3-0.7 0.7-0.7s0.7 0.3 0.7 0.7c0 0.4-0.3 0.7-0.7 0.7s-0.7-0.3-0.7-0.7v0zM8.6 1.8c0.1 0 0.2 0.1 0.2 0.2s-0.1 0.2-0.2 0.2h-1.2c-0.1-0.1-0.2-0.1-0.2-0.2s0.1-0.2 0.2-0.2h1.2z"></path>
</symbol>
<symbol id="icon_note" viewBox="0 0 16 16">
<title>note</title>
<path d="M11.25 7.1h-6.6c-0.3 0-0.5 0.2-0.5 0.5 0 0.2 0.2 0.4 0.5 0.4h6.6c0.3 0 0.5-0.2 0.5-0.5 0-0.2-0.2-0.4-0.5-0.4v0zM13.65 13.6c0 0.5-0.4 0.9-0.9 0.9h-9.5c-0.5 0-0.9-0.4-0.9-0.9v-9.4c0-0.5 0.4-0.9 0.9-0.9h1.4v1.9h6.6v-1.9h1.4c0.5 0 0.9 0.4 0.9 0.9v9.4h0.1zM5.55 2.4h1.1c0-0.5 0.6-0.9 1.3-0.9s1.3 0.4 1.3 0.9h1.1v1.9h-4.8v-1.9zM12.65 2.4h-1.4v-1h-1.3c-0.4-0.5-1.1-0.9-2-0.9s-1.6 0.4-2 0.9h-1.3v0.9h-1.4c-1 0-1.9 0.8-1.9 1.9v9.4c0 1 0.8 1.9 1.9 1.9h9.5c1 0 1.9-0.8 1.9-1.9v-9.4c-0.1-1-0.9-1.8-2-1.8v0zM11.25 11.8h-6.6c-0.3 0-0.5 0.2-0.5 0.5s0.2 0.5 0.5 0.5h6.6c0.3 0 0.5-0.2 0.5-0.5s-0.2-0.5-0.5-0.5v0zM11.25 9.4h-6.6c-0.3 0-0.5 0.2-0.5 0.5s0.2 0.5 0.5 0.5h6.6c0.3 0 0.5-0.2 0.5-0.5s-0.2-0.5-0.5-0.5v0z"></path>
</symbol>
<symbol id="icon_ruler" viewBox="0 0 16 16">
<title>ruler</title>
<path d="M12.3 15.5c-0.1 0-0.1 0-0.2 0-0.5 0-1.1 0-1.6 0 0 0-0.1 0-0.1 0 0-0.1 0-0.2 0-0.4 0 0 0 0 0.1 0 0.6 0 1.1 0 1.7 0 0 0 0.1 0 0.1 0 0 0.1 0 0.3 0 0.4zM12.3 0.9c0 0 0 0 0 0-0.7 0-1.2 0-1.8 0 0 0 0 0-0.1 0 0-0.1 0-0.2 0-0.4 0 0 0 0 0 0 0.6 0 1.2 0 1.8 0 0.1 0.1 0.1 0.2 0.1 0.4zM9.7 15.5c-2 0-4 0-6 0 0-5 0-10 0-15 2 0 4 0 6 0 0 5 0 10 0 15zM8.9 4.3c0-0.6 0-1.3 0-1.9-0.7 0-1.5 0-2.2 0 0-0.1 0-0.2 0-0.4 0.7 0 1.5 0 2.2 0 0-0.2 0-0.5 0-0.7-1.5 0-3 0-4.4 0 0 4.5 0 9 0 13.4 1.5 0 3 0 4.4 0 0-0.7 0-1.5 0-2.2-0.4 0-0.7 0-1.1 0 0-0.1 0-0.3 0-0.4 0.4 0 0.7 0 1.1 0 0-0.8 0-1.5 0-2.2-0.7 0-1.5 0-2.2 0 0-0.1 0-0.2 0-0.4 0.7 0 1.5 0 2.2 0 0-0.8 0-1.5 0-2.3-0.4 0-0.7 0-1.1 0 0-0.1 0-0.2 0-0.4 0.4 0 0.7 0 1.1 0 0-0.8 0-1.5 0-2.2-0.4 0-0.7 0-1.1 0 0-0.1 0-0.2 0-0.4 0.4 0.1 0.7 0.1 1.1 0.1zM11.2 1.3c0.1 0 0.2 0 0.4 0 0 4.5 0 9 0 13.5-0.1 0-0.2 0-0.4 0 0-4.6 0-9 0-13.5z"></path>
</symbol>
<symbol id="icon_tool" viewBox="0 0 16 16">
<title>tool</title>
<path d="M15.4 6.8l-0.1-0.4-1.2-0.4c-0.1-0.3-0.2-0.6-0.4-0.9l0.6-1.1-0.2-0.3c-0.5-0.6-1-1.2-1.7-1.7l-0.3-0.2-1.1 0.6c-0.4-0.3-0.7-0.4-1-0.5l-0.4-1.2-0.4-0.1c-0.4-0.1-0.8-0.1-1.2-0.1s-0.8 0-1.2 0.1l-0.4 0.1-0.4 1.2c-0.3 0.1-0.6 0.2-0.9 0.4l-1.2-0.6-0.3 0.2c-0.6 0.5-1.2 1.1-1.7 1.7l-0.2 0.3 0.6 1.1c-0.2 0.4-0.3 0.7-0.4 1l-1.2 0.4-0.1 0.4c-0.1 0.4-0.1 0.8-0.1 1.2s0 0.8 0.1 1.2l0.1 0.4 1.2 0.4c0.1 0.3 0.2 0.6 0.4 0.9l-0.6 1.1 0.2 0.3c0.2 0.3 0.5 0.6 0.8 0.9s0.6 0.5 0.9 0.8l0.3 0.2 1.1-0.6c0.4 0.3 0.7 0.4 1 0.5l0.4 1.2 0.4 0.1c0.4 0.1 0.8 0.1 1.2 0.1s0.8 0 1.2-0.1l0.4-0.1 0.4-1.2c0.3-0.1 0.6-0.2 0.9-0.4l1.1 0.6 0.3-0.2c0.4-0.3 0.7-0.5 0.9-0.8 0.3-0.3 0.5-0.6 0.8-0.9l0.2-0.3-0.6-1.1c0.2-0.3 0.3-0.6 0.4-0.9l1.2-0.4 0.1-0.4c0.1-0.4 0.1-0.8 0.1-1.2 0.1-0.5 0.1-0.9 0-1.3zM14.3 8v0c0 0.2 0 0.5 0 0.7l-0.6 0.2-0.5 0.2-0.2 0.5c-0.1 0.3-0.2 0.6-0.4 0.9l-0.3 0.5 0.5 1c-0.1 0.2-0.3 0.4-0.5 0.5v0c-0.2 0.2-0.3 0.3-0.5 0.5l-1-0.5-0.5 0.2c-0.3 0.1-0.6 0.3-0.9 0.4l-0.5 0.2-0.2 0.5-0.2 0.6c-0.5 0.1-0.9 0.1-1.4 0l-0.2-0.6 0.1-0.6-0.6-0.2c-0.3-0.1-0.6-0.2-0.9-0.4l-0.5-0.2-0.5 0.2-0.5 0.3c-0.4-0.3-0.7-0.6-1-1l0.5-1-0.2-0.5c-0.1-0.2-0.2-0.5-0.3-0.8l-0.2-0.5-1.1-0.4c-0.1-0.5-0.1-0.9 0-1.4l1.1-0.4 0.2-0.5c0.1-0.3 0.2-0.6 0.4-0.9l0.2-0.5-0.2-0.4-0.3-0.5c0.3-0.4 0.6-0.7 1-1l1 0.5 0.5-0.3c0.2-0.1 0.5-0.2 0.8-0.3l0.6-0.2 0.2-0.5 0.2-0.6c0.2 0 0.5 0 0.7 0s0.4 0 0.7 0l0.4 1.1 0.4 0.2c0.3 0.1 0.6 0.2 0.9 0.4l0.5 0.2 1-0.5c0.4 0.3 0.7 0.6 1 1l-0.5 1 0.2 0.5c0.1 0.3 0.3 0.6 0.4 0.9l0.2 0.5 0.5 0.2 0.6 0.2c-0.1 0.2-0.1 0.4-0.1 0.6v0zM8 5.1c-1.6 0-2.9 1.3-2.9 2.9s1.3 2.9 2.9 2.9c1.6 0 2.9-1.3 2.9-2.9s-1.3-2.9-2.9-2.9v0zM9.2 9.2c-0.3 0.3-0.7 0.5-1.2 0.5-0.4 0-0.9-0.2-1.2-0.5s-0.5-0.8-0.5-1.2c0-0.4 0.2-0.9 0.5-1.2s0.8-0.5 1.2-0.5c0.4 0 0.9 0.2 1.2 0.5 0.6 0.7 0.7 1.7 0 2.4 0 0 0 0 0 0z"></path>
</symbol>
</defs>
</svg>
